ply
format ascii 1.0
element vertex 394
property float x
property float y
property float z
end_header
-50.910301208496094 -201.2601776123047 -0.28614383935928345
-53.480010986328125 -197.6891632080078 -0.2842367887496948
-53.124595642089844 -198.15415954589844 -0.28056493401527405
-53.51918029785156 -197.67950439453125 -0.2771507501602173
-55.351104736328125 -195.12716674804688 -0.2734210789203644
-58.65005874633789 -190.490234375 -0.2830042839050293
-57.31694030761719 -192.40786743164062 -0.26912951469421387
-59.43187713623047 -189.4508819580078 -0.2719719707965851
-61.249881744384766 -186.91522216796875 -0.27727144956588745
-60.008174896240234 -188.65283203125 -0.26934266090393066
-60.008174896240234 -188.65283203125 -0.26934266090393066
-61.515079498291016 -186.5557861328125 -0.2746782600879669
-61.2094841003418 -186.98419189453125 -0.27032503485679626
-61.12886047363281 -187.13111877441406 -0.2669794261455536
-62.29950714111328 -185.47706604003906 -0.2670930325984955
-61.97127914428711 -185.9637451171875 -0.26477769017219543
-61.97127914428711 -185.9637451171875 -0.26477769017219543
-63.99298095703125 -183.10794067382812 -0.2730647921562195
-65.05760192871094 -181.65106201171875 -0.2644200325012207
-64.80609893798828 -182.02499389648438 -0.26224038004875183
-63.745113372802734 -183.5115203857422 -0.2562795579433441
-67.13896179199219 -178.76296997070312 -0.2668624222278595
-67.13896179199219 -178.76296997070312 -0.2668624222278595
-67.96703338623047 -177.6206817626953 -0.2648451626300812
-74.9451675415039 -167.87828063964844 -0.2700135409832001
-74.9126968383789 -167.9534454345703 -0.26823142170906067
-76.4100112915039 -165.87413024902344 -0.2579677104949951
-76.81717681884766 -165.31002807617188 -0.25871145725250244
-74.87882232666016 -168.05584716796875 -0.24479323625564575
-75.78180694580078 -166.79653930664062 -0.24608387053012848
-77.42864227294922 -164.5036163330078 -0.24617017805576324
-76.9695816040039 -165.15098571777344 -0.24123574793338776
-76.28410339355469 -166.11825561523438 -0.23910915851593018
-76.28410339355469 -166.11825561523438 -0.23910915851593018
-77.19478607177734 -164.8356170654297 -0.23966796696186066
-76.60680389404297 -165.68539428710938 -0.23533467948436737
-78.37373352050781 -163.22166442871094 -0.23874369263648987
-81.56046295166016 -158.7711181640625 -0.24247092008590698
-79.93209838867188 -161.04010009765625 -0.2367321103811264
-80.40489196777344 -160.38966369628906 -0.2371845692396164
-84.7454605102539 -154.31956481933594 -0.24977552890777588
-81.29037475585938 -159.15016174316406 -0.23830603063106537
-84.74178314208984 -154.3175811767578 -0.24387741088867188
-84.08966064453125 -155.262451171875 -0.24153615534305573
-84.08966064453125 -155.262451171875 -0.24153615534305573
-85.46849060058594 -153.33206176757812 -0.24164234101772308
-87.51827239990234 -150.4729766845703 -0.24686045944690704
-80.79602813720703 -159.88909912109375 -0.2245393693447113
-81.30935668945312 -159.175537109375 -0.224735826253891
-86.81927490234375 -151.46658325195312 -0.23976446688175201
-81.70757293701172 -158.63050842285156 -0.22375492751598358
-83.29071807861328 -156.4040985107422 -0.22481803596019745
-83.60121154785156 -155.97628784179688 -0.22490370273590088
-83.36756896972656 -156.37249755859375 -0.2232750654220581
-90.91376495361328 -145.7930450439453 -0.23723836243152618
-88.35847473144531 -149.41397094726562 -0.21751274168491364
-88.31365966796875 -149.47520446777344 -0.21655502915382385
-88.0610122680664 -149.8289337158203 -0.2158009111881256
-93.3543930053711 -142.42176818847656 -0.22847306728363037
-93.3543930053711 -142.42176818847656 -0.22847306728363037
-88.65629577636719 -148.99276733398438 -0.21357886493206024
-89.10702514648438 -148.37522888183594 -0.2130569964647293
-91.09062194824219 -145.62123107910156 -0.21347488462924957
-99.13065338134766 -134.4252166748047 -0.22808805108070374
-93.2837142944336 -142.59872436523438 -0.20981156826019287
-94.0580062866211 -141.51632690429688 -0.20931659638881683
-92.76760864257812 -143.32156372070312 -0.20367000997066498
-97.09603118896484 -137.29090881347656 -0.2105516791343689
-97.09603118896484 -137.29090881347656 -0.2105516791343689
-103.50540924072266 -128.38336181640625 -0.22431989014148712
-103.16814422607422 -128.84359741210938 -0.22348755598068237
-96.02165985107422 -138.78353881835938 -0.20714867115020752
-93.70726013183594 -142.02955627441406 -0.2014933079481125
-93.70726013183594 -142.02955627441406 -0.2014933079481125
-93.6904067993164 -142.06922912597656 -0.2007259577512741
-96.60686492919922 -137.98065185546875 -0.20660196244716644
-97.52694702148438 -136.70249938964844 -0.2081320732831955
-94.86542510986328 -140.4062957763672 -0.20183216035366058
-97.2672119140625 -137.0741424560547 -0.20671334862709045
-95.82003784179688 -139.08616638183594 -0.20336253941059113
-97.79427337646484 -136.32846069335938 -0.20729734003543854
-98.82044219970703 -134.90049743652344 -0.20857498049736023
-97.99114227294922 -136.0487060546875 -0.206594780087471
-97.09004211425781 -137.3115692138672 -0.20422875881195068
-95.90283203125 -138.96498107910156 -0.20077505707740784
-95.97549438476562 -138.88372802734375 -0.2006751298904419
-94.84169006347656 -140.45510864257812 -0.1969664990901947
-95.76476287841797 -139.1782989501953 -0.19767224788665771
-97.61094665527344 -136.58221435546875 -0.20142433047294617
-95.9826431274414 -138.8623809814453 -0.19782336056232452
-98.4068832397461 -135.4977264404297 -0.2029123455286026
-98.4189682006836 -135.4584503173828 -0.2010672390460968
-98.9186782836914 -134.7616424560547 -0.20179197192192078
-98.84463500976562 -134.8773193359375 -0.2009761482477188
-98.47885131835938 -135.3937530517578 -0.19841232895851135
-97.90631103515625 -136.20712280273438 -0.19687619805335999
-97.88629150390625 -136.2390594482422 -0.19552600383758545
-97.88629150390625 -136.2390594482422 -0.19552600383758545
-100.18034362792969 -133.04779052734375 -0.20018023252487183
-101.25387573242188 -131.5327911376953 -0.20167259871959686
-100.43159484863281 -132.6866455078125 -0.19818465411663055
-99.28466796875 -134.29200744628906 -0.19573818147182465
-97.35176086425781 -136.9992218017578 -0.19135063886642456
-97.7098388671875 -136.50071716308594 -0.19178274273872375
-106.13008880615234 -124.75929260253906 -0.20795056223869324
-100.83141326904297 -132.09173583984375 -0.1970181167125702
-105.24131774902344 -126.00192260742188 -0.20190642774105072
-103.100830078125 -129.02520751953125 -0.19611899554729462
-102.45438385009766 -129.8999786376953 -0.1948058158159256
-103.79133605957031 -128.05555725097656 -0.1914782077074051
-107.80369567871094 -122.4738998413086 -0.19730664789676666
-104.7149887084961 -126.77112579345703 -0.19097967445850372
-104.7149887084961 -126.77112579345703 -0.19097967445850372
-107.58051300048828 -122.79059600830078 -0.19540604948997498
-103.77972412109375 -128.10179138183594 -0.18827585875988007
-105.31055450439453 -125.95635223388672 -0.19046826660633087
-104.62443542480469 -126.91060638427734 -0.18916819989681244
-105.38964080810547 -125.83692169189453 -0.18967588245868683
-105.38964080810547 -125.83692169189453 -0.18967588245868683
-107.07964324951172 -123.49494934082031 -0.1909140944480896
-106.73017120361328 -123.98663330078125 -0.1897154301404953
-115.40593719482422 -111.93782043457031 -0.20456568896770477
-109.02661895751953 -120.80915069580078 -0.19277168810367584
-109.02661895751953 -120.80915069580078 -0.19277168810367584
-105.33934020996094 -125.92318725585938 -0.1860864758491516
-106.70346069335938 -124.03778839111328 -0.1882300078868866
-106.54732513427734 -124.24424743652344 -0.1870715469121933
-106.54732513427734 -124.24424743652344 -0.1870715469121933
-109.9962158203125 -119.45132446289062 -0.19268488883972168
-109.48967742919922 -120.16509246826172 -0.19149069488048553
-112.94779205322266 -115.35929870605469 -0.1972845494747162
-105.66445922851562 -125.42505645751953 -0.1836887151002884
-115.52993774414062 -111.78294372558594 -0.20095737278461456
-105.25704193115234 -126.04114532470703 -0.1826874017715454
-114.46377563476562 -113.25831604003906 -0.1989237666130066
-107.89715576171875 -122.3587646484375 -0.18678253889083862
-110.59100341796875 -118.58653259277344 -0.19154460728168488
-109.4764175415039 -120.17486572265625 -0.18960300087928772
-112.98363494873047 -115.3283462524414 -0.1957731395959854
-112.98363494873047 -115.3283462524414 -0.1957731395959854
-112.20588684082031 -116.39944458007812 -0.1942548304796219
-110.4549331665039 -118.8350830078125 -0.19105824828147888
-108.51634979248047 -121.4968490600586 -0.18689239025115967
-105.40318298339844 -125.85967254638672 -0.1813078671693802
-111.13658905029297 -117.87373352050781 -0.19125176966190338
-117.08094787597656 -109.65283203125 -0.2006509006023407
-105.79999542236328 -125.28203582763672 -0.1808125227689743
-107.3123550415039 -123.21541595458984 -0.18305353820323944
-111.191162109375 -117.80164337158203 -0.18917818367481232
-111.191162109375 -117.80164337158203 -0.18917818367481232
-109.86725616455078 -119.64458465576172 -0.18690600991249084
-107.96936798095703 -122.282958984375 -0.18311114609241486
-114.7137222290039 -112.92223358154297 -0.1945532262325287
-106.27293395996094 -124.63356018066406 -0.17888128757476807
-110.28922271728516 -119.05987548828125 -0.18464182317256927
-117.39934539794922 -109.22421264648438 -0.19657930731773376
-106.06122589111328 -124.95018768310547 -0.1771705001592636
-114.58245849609375 -113.10055541992188 -0.19157595932483673
-111.27949523925781 -117.68902587890625 -0.18573088943958282
-118.52250671386719 -107.63529205322266 -0.19764234125614166
-111.16162872314453 -117.86167907714844 -0.18499988317489624
-111.16162872314453 -117.86167907714844 -0.18499988317489624
-106.69403076171875 -124.07088470458984 -0.17720304429531097
-106.69403076171875 -124.07088470458984 -0.17720304429531097
-111.74066162109375 -117.04927062988281 -0.18574371933937073
-107.11370086669922 -123.48735046386719 -0.1769738644361496
-107.11370086669922 -123.48735046386719 -0.1769738644361496
-118.14080810546875 -108.16404724121094 -0.1953068971633911
-107.76484680175781 -122.58039855957031 -0.1776668131351471
-107.76484680175781 -122.58039855957031 -0.1776668131351471
-106.60647583007812 -130.72097778320312 -0.18122538924217224
-108.19080352783203 -121.99180603027344 -0.17793351411819458
-111.34959411621094 -117.60246276855469 -0.1830802857875824
-107.66201782226562 -122.73251342773438 -0.17664247751235962
-119.55311584472656 -106.25065612792969 -0.1958858072757721
-120.18356323242188 -105.29940032958984 -0.19659902155399323
-108.94278717041016 -120.94688415527344 -0.17783217132091522
-110.41364288330078 -118.93606567382812 -0.18009053170681
-112.06787109375 -116.60406494140625 -0.1823296844959259
-111.84466552734375 -116.93087005615234 -0.1814323365688324
-120.58973693847656 -104.83108520507812 -0.19503094255924225
-115.66413116455078 -111.61100769042969 -0.1865384727716446
-108.16065216064453 -122.04680633544922 -0.17394573986530304
-108.16065216064453 -122.04680633544922 -0.17394573986530304
-112.09663391113281 -116.58194732666016 -0.18030805885791779
-109.60189819335938 -120.03834533691406 -0.17617924511432648
-110.57726287841797 -118.69744873046875 -0.17747779190540314
-116.2932357788086 -110.76167297363281 -0.18642805516719818
-113.79878997802734 -114.20226287841797 -0.18206247687339783
-108.97456359863281 -120.906982421875 -0.17277221381664276
-111.88996124267578 -116.87553405761719 -0.17733915150165558
-112.79711151123047 -115.61700439453125 -0.17849189043045044
-111.55563354492188 -117.34280395507812 -0.17639029026031494
-115.76343536376953 -111.50897979736328 -0.18251687288284302
-115.76343536376953 -111.50897979736328 -0.18251687288284302
-109.22515106201172 -120.57795715332031 -0.17204952239990234
-110.52352142333984 -118.76258850097656 -0.17395959794521332
-109.67990112304688 -119.94157409667969 -0.1720774918794632
-108.43439483642578 -121.67140197753906 -0.17003513872623444
-109.52003479003906 -120.155029296875 -0.1714470237493515
-109.90510559082031 -119.62467193603516 -0.17134159803390503
-113.9329833984375 -114.04302215576172 -0.1777031123638153
-108.96340942382812 -120.93376159667969 -0.16969077289104462
-108.96340942382812 -120.93376159667969 -0.16969077289104462
-112.9679183959961 -115.37399291992188 -0.17600947618484497
-109.58680725097656 -120.08072662353516 -0.17033076286315918
-113.03756713867188 -115.33118438720703 -0.17583709955215454
-112.20480346679688 -116.46356964111328 -0.1740572601556778
-110.91867065429688 -118.2159423828125 -0.17170830070972443
-113.83902740478516 -114.16905975341797 -0.17624397575855255
-109.76509857177734 -119.82818603515625 -0.16924718022346497
-110.12103271484375 -119.35148620605469 -0.16941715776920319
-110.12103271484375 -119.35148620605469 -0.16941715776920319
-113.77485656738281 -114.2216796875 -0.17470470070838928
-115.71324920654297 -111.54297637939453 -0.1765674501657486
-110.76556396484375 -118.45117950439453 -0.16773808002471924
-116.64202117919922 -110.2852554321289 -0.17534956336021423
-116.64202117919922 -110.2852554321289 -0.17534956336021423
-111.01561737060547 -118.13497161865234 -0.16637417674064636
-111.0197525024414 -118.1469497680664 -0.1663227528333664
-117.10238647460938 -109.6473617553711 -0.17556335031986237
-110.7900390625 -118.42460632324219 -0.16590890288352966
-114.92210388183594 -112.68041229248047 -0.17136222124099731
-114.23257446289062 -113.64978790283203 -0.16987648606300354
-122.19105529785156 -102.56290435791016 -0.18177185952663422
-117.37830352783203 -109.24852752685547 -0.1739649772644043
-116.2561264038086 -110.84159088134766 -0.1721583604812622
-112.95175170898438 -115.4329833984375 -0.16700704395771027
-112.95175170898438 -115.4329833984375 -0.16700704395771027
-115.5384750366211 -111.83110809326172 -0.17074507474899292
-116.93343353271484 -109.90104675292969 -0.17277179658412933
-115.26985931396484 -112.19729614257812 -0.169997438788414
-114.52730560302734 -113.22701263427734 -0.1685531586408615
-115.7839126586914 -111.49241638183594 -0.17018535733222961
-114.91766357421875 -112.7082748413086 -0.16847597062587738
-115.5429458618164 -111.83094787597656 -0.16923268139362335
-117.47541046142578 -109.15704345703125 -0.17198298871517181
-116.7441177368164 -110.20387268066406 -0.1704462617635727
-112.29395294189453 -116.34256744384766 -0.16381165385246277
-116.068359375 -111.10247802734375 -0.1690845489501953
-112.65943908691406 -115.84422302246094 -0.1639709621667862
-115.77766418457031 -111.50147247314453 -0.16828760504722595
-113.39226531982422 -114.79916381835938 -0.16432546079158783
-115.02360534667969 -112.54942321777344 -0.16662390530109406
-112.66582489013672 -115.82254028320312 -0.16307199001312256
-112.66582489013672 -115.82254028320312 -0.16307199001312256
-115.43895721435547 -111.98419189453125 -0.16682368516921997
-116.31581115722656 -110.75650024414062 -0.16807010769844055
-116.31581115722656 -110.75650024414062 -0.16807010769844055
-126.58396911621094 -96.61479187011719 -0.18282726407051086
-118.34386444091797 -107.9419174194336 -0.17019838094711304
-116.6998519897461 -110.21862030029297 -0.1672782599925995
-116.6998519897461 -110.21862030029297 -0.1672782599925995
-117.42518615722656 -109.22003173828125 -0.16778606176376343
-118.23209381103516 -108.10173034667969 -0.16879163682460785
-113.8559341430664 -114.18360900878906 -0.162154883146286
-115.58464813232422 -111.78646850585938 -0.1645517349243164
-118.060546875 -108.4976806640625 -0.16723468899726868
-116.91535949707031 -109.95109558105469 -0.16570688784122467
-113.69012451171875 -114.4211654663086 -0.16097640991210938
-118.31512451171875 -108.00713348388672 -0.16757740080356598
-114.30150604248047 -113.5672836303711 -0.16150826215744019
-118.29915618896484 -108.01976776123047 -0.16725926101207733
-113.54074096679688 -114.58836364746094 -0.16054005920886993
-118.00588989257812 -108.4053726196289 -0.1664438247680664
-118.11012268066406 -108.31742095947266 -0.16625966131687164
-116.08473205566406 -111.11094665527344 -0.16304557025432587
-115.29106140136719 -112.18607330322266 -0.1619330644607544
-117.11121368408203 -109.6510238647461 -0.16445378959178925
-117.79824829101562 -108.7012710571289 -0.16488635540008545
-114.2568130493164 -113.64395904541016 -0.15980058908462524
-114.08226013183594 -113.87760162353516 -0.15912649035453796
-118.19731903076172 -108.14740753173828 -0.16492518782615662
-118.19731903076172 -108.14740753173828 -0.16492518782615662
-120.01283264160156 -105.63371276855469 -0.16750074923038483
-119.7000732421875 -106.07921600341797 -0.16704688966274261
-117.16134643554688 -109.66261291503906 -0.16256718337535858
-117.16134643554688 -109.66261291503906 -0.16256718337535858
-120.19770812988281 -105.3812026977539 -0.16646762192249298
-118.53875732421875 -107.70245361328125 -0.16413380205631256
-124.95124053955078 -98.80856323242188 -0.17277882993221283
-124.91114044189453 -98.87361907958984 -0.17145007848739624
-125.39588165283203 -98.1835708618164 -0.17139527201652527
-120.23323059082031 -105.31863403320312 -0.16420729458332062
-120.05709838867188 -105.59262084960938 -0.16291749477386475
-119.64776611328125 -106.15958404541016 -0.16200710833072662
-120.41472625732422 -105.12960815429688 -0.16300499439239502
-119.31908416748047 -106.6185531616211 -0.16113947331905365
-125.9549560546875 -97.41895294189453 -0.17012226581573486
-128.6678009033203 -93.68234252929688 -0.17338189482688904
-119.09246826171875 -106.92942810058594 -0.15982332825660706
-122.02013397216797 -102.86952209472656 -0.1637238711118698
-120.6854019165039 -104.71824645996094 -0.1613273024559021
-128.9816436767578 -93.25421905517578 -0.17140623927116394
-127.2574691772461 -95.61204528808594 -0.16874821484088898
-120.69245147705078 -104.72185516357422 -0.1599651277065277
-122.99765014648438 -101.51579284667969 -0.16302995383739471
-122.99765014648438 -101.51579284667969 -0.16302995383739471
-123.53184509277344 -100.78202056884766 -0.1634971648454666
-121.24503326416016 -103.94709014892578 -0.1604260504245758
-119.83970642089844 -105.9172134399414 -0.15828761458396912
-124.48655700683594 -99.46402740478516 -0.1643148958683014
-124.23751068115234 -99.84043884277344 -0.1634112447500229
-125.73094940185547 -97.75554656982422 -0.1652345508337021
-120.02323150634766 -105.6557388305664 -0.15764205157756805
-127.96443176269531 -94.66541290283203 -0.16799643635749817
-127.96443176269531 -94.66541290283203 -0.16799643635749817
-119.69815826416016 -106.1015625 -0.15670830011367798
-124.64928436279297 -99.23468780517578 -0.1621355265378952
-120.535888671875 -104.95247650146484 -0.15527990460395813
-128.37245178222656 -94.0908203125 -0.16436977684497833
-121.58806610107422 -103.4845199584961 -0.15522417426109314
-124.7471694946289 -99.11612701416016 -0.15888281166553497
-122.24034118652344 -102.59296417236328 -0.15512233972549438
-123.10626983642578 -101.37799072265625 -0.15580932796001434
-123.10626983642578 -101.37799072265625 -0.15580932796001434
-122.9578628540039 -101.57469177246094 -0.1554039865732193
-121.11553192138672 -104.141357421875 -0.1527685970067978
-124.26423645019531 -99.79670715332031 -0.15583235025405884
-123.78803253173828 -100.44194030761719 -0.1550462692975998
-121.97889709472656 -102.95226287841797 -0.15269175171852112
-121.97889709472656 -102.95226287841797 -0.15269175171852112
-124.51202392578125 -99.43486785888672 -0.1557503491640091
-124.77967834472656 -99.06907653808594 -0.15578341484069824
-123.3819351196289 -101.01375579833984 -0.15322481095790863
-124.66744232177734 -99.2334976196289 -0.15410587191581726
-128.01614379882812 -94.60153198242188 -0.15820856392383575
-125.80056762695312 -97.66943359375 -0.1551734358072281
-125.80056762695312 -97.66943359375 -0.1551734358072281
-125.03235626220703 -98.72196960449219 -0.15416137874126434
-124.85443115234375 -98.96275329589844 -0.15375687181949615
-132.5557403564453 -88.25574493408203 -0.16285039484500885
-126.89830780029297 -96.15943145751953 -0.1558104008436203
-123.02777099609375 -101.4999008178711 -0.1505701094865799
-128.71981811523438 -93.6222152709961 -0.1574869006872177
-127.79010772705078 -94.8916244506836 -0.15633511543273926
-123.06961822509766 -101.45072937011719 -0.1500091403722763
-127.82093811035156 -94.86177825927734 -0.15577106177806854
-127.6894302368164 -95.04610443115234 -0.1538253277540207
-121.53952026367188 -103.58431243896484 -0.14590705931186676
-127.77290344238281 -94.94337463378906 -0.1534624546766281
-127.64237213134766 -95.12544250488281 -0.15312516689300537
-126.3781509399414 -96.8648452758789 -0.15131457149982452
-128.37890625 -94.12906646728516 -0.1536647528409958
-127.06037902832031 -95.92547607421875 -0.1517677903175354
-133.48501586914062 -87.02532958984375 -0.15914559364318848
-124.18417358398438 -99.9067611694336 -0.14688506722450256
-127.82861328125 -94.86410522460938 -0.15123556554317474
-128.695556640625 -93.65076446533203 -0.1521337777376175
-130.34085083007812 -91.20760345458984 -0.15404315292835236
-134.1515655517578 -86.07499694824219 -0.15642023086547852
-125.30870819091797 -98.36296081542969 -0.14593195915222168
-131.51663208007812 -89.75321960449219 -0.15260425209999084
-129.8456573486328 -92.05487823486328 -0.14874854683876038
-134.051025390625 -86.2601547241211 -0.1533130407333374
-130.51524353027344 -91.14114379882812 -0.14882220327854156
-129.69093322753906 -92.28675842285156 -0.14729063212871552
-129.69093322753906 -92.28675842285156 -0.14729063212871552
-131.51239013671875 -89.76382446289062 -0.14910344779491425
-131.51239013671875 -89.76382446289062 -0.14910344779491425
-130.44520568847656 -91.23087310791016 -0.14738872647285461
-131.8863525390625 -89.24173736572266 -0.1468958556652069
-133.1289825439453 -87.53653717041016 -0.14602996408939362
-133.1289825439453 -87.53653717041016 -0.14602996408939362
-132.04522705078125 -89.04490661621094 -0.1444024294614792
-131.81524658203125 -89.35148620605469 -0.14411741495132446
-131.02435302734375 -90.44953918457031 -0.1430891752243042
-131.5287322998047 -89.74419403076172 -0.14361998438835144
-129.28712463378906 -92.85491943359375 -0.14079754054546356
-131.51026916503906 -89.77067565917969 -0.143100306391716
-128.35650634765625 -94.15815734863281 -0.1388755887746811
-128.35650634765625 -94.15815734863281 -0.1388755887746811
-132.6029510498047 -88.24715423583984 -0.14336179196834564
-134.2586212158203 -85.97660827636719 -0.14469248056411743
-133.3892822265625 -87.18997955322266 -0.14355267584323883
-133.31878662109375 -87.28450012207031 -0.14344973862171173
-134.12745666503906 -86.14883422851562 -0.1406223177909851
-132.91143798828125 -87.84796905517578 -0.13870105147361755
-133.27122497558594 -87.34740447998047 -0.13859525322914124
-134.29742431640625 -85.92333221435547 -0.1379254013299942
-135.01422119140625 -84.93041229248047 -0.1374915987253189
-133.8272705078125 -86.58765411376953 -0.1358812302350998
-130.4186553955078 -91.31798553466797 -0.1301058530807495
-131.23751831054688 -90.16927337646484 -0.13087326288223267
-130.40347290039062 -91.32603454589844 -0.12905389070510864
-135.1269073486328 -84.7844467163086 -0.13294759392738342
-132.29945373535156 -88.70653533935547 -0.12898032367229462
-135.22109985351562 -84.6745376586914 -0.12890245020389557
-135.22109985351562 -84.6745376586914 -0.12890245020389557
-135.22109985351562 -84.6745376586914 -0.12890245020389557
-135.5303192138672 -84.24018096923828 -0.12871050834655762
-133.23321533203125 -87.42180633544922 -0.12566478550434113
-132.28526306152344 -88.72785186767578 -0.12416362017393112
-132.28526306152344 -88.72785186767578 -0.12416362017393112
